<?xml version="1.0" standalone="no"?>
<!DOCTYPE svg PUBLIC "-//W3C//DTD SVG 20010904//EN"
 "http://www.w3.org/TR/2001/REC-SVG-20010904/DTD/svg10.dtd">
<svg version="1.0" xmlns="http://www.w3.org/2000/svg"
 width="405.000000pt" height="228.000000pt" viewBox="0 0 405.000000 228.000000"
 preserveAspectRatio="xMidYMid meet">

<g transform="translate(0.000000,228.000000) scale(0.100000,-0.100000)"
fill="#ffffff" stroke="none">
<path d="M2695 2035 c-163 -23 -259 -56 -295 -103 -19 -24 -20 -42 -20 -699 0
-641 1 -676 19 -711 23 -44 43 -63 98 -91 114 -57 316 -86 537 -78 378 14 622
152 762 429 128 254 119 633 -21 885 -82 147 -255 280 -430 332 -172 51 -440
66 -650 36z m440 -367 c121 -30 223 -141 260 -285 20 -76 20 -287 0 -371 -35
-149 -119 -240 -257 -278 -56 -16 -223 -21 -277 -9 l-31 7 0 473 0 474 68 4
c84 5 185 -2 237 -15z"/>
<path d="M464 2010 c-55 -11 -133 -51 -163 -84 l-24 -26 -40 -699 -40 -699 20
-38 c27 -53 89 -84 184 -91 72 -5 201 9 227 26 13 8 22 209 38 834 5 203 8
238 21 235 10 -2 27 -45 49 -118 54 -180 165 -512 181 -543 26 -51 91 -72 218
-72 98 0 115 3 160 26 l49 25 68 219 c37 121 83 272 102 335 22 74 39 116 49
118 12 3 16 -36 21 -270 11 -425 25 -676 40 -711 20 -47 54 -73 120 -92 78
-23 201 -16 271 14 l50 21 -7 128 c-20 320 -99 1183 -119 1285 -5 28 -17 64
-27 81 -39 68 -188 114 -327 103 -81 -7 -168 -31 -189 -52 -17 -17 -120 -329
-197 -597 -40 -141 -58 -188 -70 -188 -11 0 -26 34 -54 128 -54 181 -169 522
-188 557 -19 37 -82 98 -122 118 -65 33 -207 45 -301 27z"/>
</g>
</svg>
